<?xml version="1.0" standalone="no"?>
<!DOCTYPE svg PUBLIC "-//W3C//DTD SVG 20010904//EN"
 "http://www.w3.org/TR/2001/REC-SVG-20010904/DTD/svg10.dtd">
<svg version="1.0" xmlns="http://www.w3.org/2000/svg"
 width="400.000000pt" height="400.000000pt" viewBox="0 0 400.000000 400.000000"
 preserveAspectRatio="xMidYMid meet">

<g transform="translate(0.000000,400.000000) scale(0.100000,-0.100000)"
fill="#000000" stroke="none">
<path d="M0 2000 l0 -2000 2000 0 2000 0 0 2000 0 2000 -2000 0 -2000 0 0
-2000z m1120 1280 l0 -50 -225 0 -225 0 0 50 0 50 225 0 225 0 0 -50z m675 28
c3 -13 4 -34 2 -48 l-4 -25 -221 -3 c-174 -2 -222 0 -223 10 -4 50 -5 74 -1
81 2 4 102 7 222 7 219 0 220 0 225 -22z m675 -28 l0 -50 -225 0 -225 0 0 50
0 50 225 0 225 0 0 -50z m-425 -269 c120 -54 188 -225 187 -471 0 -190 -35
-319 -114 -414 -80 -97 -222 -100 -316 -6 -45 44 -89 135 -108 222 -22 100
-23 311 -1 401 32 128 99 231 178 270 45 22 124 21 174 -2z m-1020 -106 l0
-110 -72 -3 -71 -3 -4 -60 c-1 -32 -1 -64 0 -69 2 -6 35 -10 73 -10 l69 0 0
-105 0 -105 -70 0 c-38 0 -71 -1 -71 -2 -1 -2 -4 -86 -8 -188 l-6 -185 -92 -3
-93 -3 0 474 c0 260 3 477 7 481 4 3 81 5 172 4 l166 -3 0 -110z m431 79 c70
-34 106 -83 129 -170 33 -126 11 -251 -56 -318 -30 -30 -38 -44 -33 -60 4 -12
35 -97 70 -190 35 -94 64 -172 64 -175 0 -9 -203 -3 -210 6 -6 7 -44 132 -93
306 -5 20 -13 35 -16 32 -3 -3 -4 -75 -2 -161 2 -169 -1 -194 -27 -189 -9 2
-52 4 -94 4 l-78 1 0 468 c0 258 3 472 8 476 4 5 68 6 143 4 127 -4 141 -6
195 -34z m1097 -94 c21 -69 55 -188 76 -264 l38 -139 -1 264 -1 264 70 3 c38
2 80 0 92 -3 l23 -5 0 -469 c0 -532 10 -481 -93 -481 -109 0 -96 -18 -175 258
l-71 247 0 -252 -1 -251 -90 0 -90 1 -1 418 c-1 231 -2 434 -4 452 -1 17 0 45
3 60 l5 28 91 -3 90 -3 39 -125z m765 13 l3 -113 -56 0 -55 0 0 -360 0 -360
-69 0 c-38 0 -83 -3 -100 -6 l-31 -6 0 366 0 366 -55 0 -55 0 0 108 c0 60 3
111 6 115 3 3 97 5 208 4 l201 -2 3 -112z m-2436 -1288 c25 -126 49 -258 53
-292 4 -35 11 -63 14 -63 4 0 15 46 23 103 27 170 78 441 88 465 7 17 18 22
45 22 46 0 49 -9 64 -195 7 -82 21 -244 32 -360 10 -115 19 -231 19 -257 l0
-48 -48 0 -49 0 -7 98 c-3 53 -9 177 -13 275 -3 97 -8 175 -11 173 -2 -3 -26
-125 -53 -272 -26 -146 -50 -269 -53 -272 -6 -5 -66 -6 -70 0 -6 7 -86 438
-93 493 -11 95 -18 38 -33 -242 -11 -218 -15 -253 -29 -254 -9 0 -26 -2 -38
-3 -46 -5 -47 1 -34 171 35 456 52 669 56 681 3 9 19 12 47 10 l43 -3 47 -230z
m748 -197 l87 -428 -53 0 c-58 0 -52 -8 -74 103 l-12 58 -81 -3 -81 -3 -14
-77 c-14 -77 -14 -78 -45 -79 -35 -1 -60 1 -66 6 -5 5 8 74 69 365 28 135 60
292 71 350 26 134 31 142 77 138 l36 -3 86 -427z m450 382 l0 -49 -57 -3 -58
-3 -3 -377 -2 -378 -55 0 -55 0 0 380 0 380 -60 0 -60 0 0 50 0 50 175 0 175
0 0 -50z m368 -2 l3 -47 -58 -3 -58 -3 -3 -377 -2 -378 -55 0 -55 0 0 374 c0
418 6 386 -75 386 -43 0 -43 0 -47 39 -2 22 -2 45 0 51 3 7 59 10 175 8 l172
-3 3 -47z m372 2 l0 -49 -87 -3 -88 -3 0 -135 0 -135 80 -5 80 -5 0 -40 0 -40
-80 -5 -80 -5 0 -145 0 -145 88 -3 87 -3 0 -44 0 -45 -140 0 -140 0 0 430 0
430 140 0 140 0 0 -50z m367 27 c70 -37 98 -107 91 -232 -6 -93 -26 -141 -73
-174 l-34 -23 16 -41 c120 -330 130 -365 109 -369 -12 -2 -36 -1 -55 2 l-33 5
-68 188 c-37 103 -70 190 -74 194 -3 3 -6 -82 -6 -190 l0 -197 -55 0 -55 0 0
423 c0 233 3 427 8 431 13 14 195 0 229 -17z m-2067 -1102 l0 -55 -222 2 -223
3 -3 29 c-2 15 -1 39 2 52 l6 24 220 0 220 0 0 -55z m668 3 c3 -42 1 -48 -20
-53 -13 -3 -113 -4 -223 -3 l-200 3 -3 39 c-6 70 -16 67 225 64 l218 -3 3 -47z
m663 32 c1 -11 1 -31 1 -45 0 -14 0 -29 -1 -35 -1 -10 -383 -13 -421 -3 -16 4
-20 14 -20 47 0 24 3 46 7 49 3 4 102 7 220 7 206 0 213 -1 214 -20z"/>
<path d="M1907 2743 c-19 -43 -22 -64 -22 -203 0 -138 3 -160 22 -202 18 -39
27 -48 48 -48 21 0 30 9 48 48 20 42 22 63 22 207 0 140 -2 165 -20 200 -15
30 -27 41 -48 43 -24 3 -30 -2 -50 -45z"/>
<path d="M1310 2690 l0 -110 25 0 c58 0 89 136 44 194 -12 15 -30 26 -45 26
-24 0 -24 0 -24 -110z"/>
<path d="M1490 1598 c-1 -18 -13 -104 -29 -191 -15 -87 -25 -160 -22 -162 2
-3 31 -5 64 -5 l59 0 -5 33 c-3 17 -16 105 -29 194 -21 153 -37 206 -38 131z"/>
<path d="M3060 1605 c0 -93 4 -145 10 -145 6 0 26 7 46 15 41 17 64 63 64 127
0 95 -33 148 -92 148 l-28 0 0 -145z"/>
</g>
</svg>
