<svg xmlns="http://www.w3.org/2000/svg" version="1.1" xmlns:xlink="http://www.w3.org/1999/xlink" xmlns:svgjs="http://svgjs.dev/svgjs" width="2000" height="510" viewBox="0 0 2000 510"><g transform="matrix(1,0,0,1,-1.2121212121212466,-0.3074056973133281)"><svg viewBox="0 0 396 101" data-background-color="#000000" preserveAspectRatio="xMidYMid meet" height="510" width="2000" xmlns="http://www.w3.org/2000/svg" xmlns:xlink="http://www.w3.org/1999/xlink"><g id="tight-bounds" transform="matrix(1,0,0,1,0.2400000000000091,0.06087838319342609)"><svg viewBox="0 0 395.52 100.87824323361318" height="100.87824323361318" width="395.52"><g><svg viewBox="0 0 630.1946490553166 160.73252703257415" height="100.87824323361318" width="395.52"><g><rect width="9.036339563291932" height="160.73252703257415" x="201.98297032110338" y="0" fill="#59feff" opacity="1" stroke-width="0" stroke="transparent" fill-opacity="1" class="rect-qz-0" data-fill-palette-color="primary" rx="1%" id="qz-0" data-palette-color="#59feff"></rect></g><g transform="matrix(1,0,0,1,234.6746490553166,0.3998321567974443)"><svg viewBox="0 0 395.52 159.93286271897927" height="159.93286271897927" width="395.52"><g id="textblocktransform"><svg viewBox="0 0 395.52 159.93286271897927" height="159.93286271897927" width="395.52" id="textblock"><g><svg viewBox="0 0 395.52 118.66052309330559" height="118.66052309330559" width="395.52"><g transform="matrix(1,0,0,1,0,0)"><svg width="395.52" viewBox="-4.45 -40.2 150.98427769893044 46" height="118.66052309330559" data-palette-color="#59feff"><g transform="matrix(1,0,0,1,0,0)"><g><svg width="14.377707698930461" viewBox="-0.8399999999999999 -40.36 108.01 44.36" height="5.825852770195966" data-palette-color="#59feff" id="scriptelement" x="125.17885384946523" y="-13.079496385097983"><path d="M16.05 0L16.05 0 3.16 0 3.16-36.36 16.16-36.36Q21.64-36.36 25.6-34.19 29.56-32.01 31.7-27.95 33.84-23.88 33.84-18.22L33.84-18.22Q33.84-12.54 31.7-8.45 29.56-4.37 25.58-2.18 21.59 0 16.05 0ZM10.85-29.78L10.85-6.59 15.73-6.59Q19.14-6.59 21.48-7.8 23.81-9.02 24.99-11.59 26.17-14.15 26.17-18.22L26.17-18.22Q26.17-22.25 24.99-24.8 23.81-27.36 21.48-28.57 19.16-29.78 15.75-29.78L15.75-29.78 10.85-29.78ZM64.1 0L39.52 0 39.52-36.36 64.02-36.36 64.02-30.02 47.21-30.02 47.21-21.36 62.76-21.36 62.76-15.02 47.21-15.02 47.21-6.34 64.1-6.34 64.1 0ZM68.18-36.36L76.72-36.36 85.51-8.74 85.84-8.74 94.65-36.36 103.17-36.36 90.64 0 80.73 0 68.18-36.36Z" opacity="1" transform="matrix(1,0,0,1,0,0)" fill="#59feff" class="undefined-123" data-fill-palette-color="primary" id="yy-123"></path></svg></g></g><path d="M122.201-10.167C122.201-15.781 126.753-20.333 132.368-20.333 137.983-20.333 142.534-15.781 142.534-10.167 142.534-4.552 137.983 0 132.368 0 126.753 0 122.201-4.552 122.201-10.167ZM132.368-0.4C137.762-0.4 142.134-4.773 142.134-10.167 142.134-15.56 137.762-19.933 132.368-19.933 126.974-19.933 122.601-15.56 122.601-10.167 122.601-4.773 126.974-0.4 132.368-0.4Z" fill="#59feff" id="scriptcircle" data-fill-palette-color="primary"></path><g class="wordmark-text-0" data-fill-palette-color="primary" id="text-0"><path d="M23.45 1.4Q21.45 1.75 20.25 1.75L20.25 1.75Q17.95 1.75 15.75 1.25L15.75 1.25Q15.55 0.65 15.4 0.5 15.25 0.35 15.05 0.33 14.85 0.3 14.75 0.25L14.75 0.25Q14.35-1 13.65-3.8L13.65-3.8Q13.25-5.45 12.98-6.2 12.7-6.95 12.4-6.95L12.4-6.95Q12-6.95 11.73-6.93 11.45-6.9 11-6.9L11-6.9Q10.65-5.95 10.3-3.85L10.3-3.85Q9.9-1.9 9.6-0.75 9.3 0.4 8.75 1.45L8.75 1.45Q8.6 1.45 8.33 1.5 8.05 1.55 7.65 1.55L7.65 1.55Q7.1 1.5 5.35 1.5L5.35 1.5 3.2 1.45 0.55 1.4 0.7 0.4-0.45 0.4 0.25-3.3Q1.65-11.4 3.3-19.28 4.95-27.15 7.45-35.45L7.45-35.45Q8.35-35.55 8.5-35.55L8.5-35.55Q8.7-35.55 9.8-35.5 10.9-35.45 14.4-35.8L14.4-35.8Q14.6-34.95 14.65-34.7L14.65-34.7 15.4-34.8Q15.85-32.25 18.55-21L18.55-21Q19.55-16.9 19.6-16.65L19.6-16.65 23.45 1.4ZM18.1-17.55L14-35.25Q11.8-35.05 9.65-35.05L9.65-35.05 8.6-35.05Q8-35.05 7.85-35L7.85-35Q5.45-26.95 3.88-19.35 2.3-11.75 0.75-3.15L0.75-3.15Q0.6-2.2 0.45-1.38 0.3-0.55 0.2-0.1L0.2-0.1 0.3-0.05 1.5-0.05 5.45 0Q5.95 0.05 6.65 0.05L6.65 0.05Q7.2 0.05 7.3 0L7.3 0 7.45-0.05Q7.9-0.8 8.15-1.85 8.4-2.9 8.7-4.65L8.7-4.65Q9.2-7.45 9.65-8.4L9.65-8.4Q10.2-8.4 10.55-8.43 10.9-8.45 11.1-8.45L11.1-8.45 11.75-8.45 12.75-8.35Q13.15-7.45 13.58-5.85 14-4.25 14.1-3.85L14.1-3.85Q14.6-1.5 15.1-0.2L15.1-0.2 15.15-0.2Q17.1 0.25 19.25 0.25L19.25 0.25Q20.5 0.25 21.85 0L21.85 0 21.85-0.05 18.1-17.55ZM10.5-14.25L9.3-14.3Q9.9-18.75 9.85-18.35L9.85-18.35Q10.25-21.7 10.53-23.23 10.8-24.75 11.1-24.75L11.1-24.75Q11.45-24.75 11.88-22.4 12.3-20.05 13-14.3L13-14.3 10.5-14.25ZM12.4-14.8L11.75-20.5 10.95-14.8 12.4-14.8ZM46.05-3.55L46.15-0.85Q46.15 0.4 45.97 0.9 45.8 1.4 45.5 1.45 45.2 1.5 44.2 1.5L44.2 1.5 43.35 1.45Q42.5 1.45 41.8 1.5L41.8 1.5Q38.6 1.6 32.9 1.6L32.9 1.6Q27.4 1.6 24 1.55L24 1.55 24 0.55 23 0.55 23-0.85Q23.35-7.9 23.35-17.45L23.35-17.45Q23.35-28.15 23.15-35.5L23.15-35.5Q23.8-35.75 24.97-35.93 26.15-36.1 27.35-36.1L27.35-36.1Q30.35-36.1 32.15-35.3L32.15-35.3 32.1-34.65Q32.35-34.55 32.6-34.48 32.85-34.4 33.15-34.3L33.15-34.3Q33.05-30.7 33.05-28.35L33.05-28.35Q33.05-25.35 33.15-19.35L33.15-19.35 33.2-10.5 33.2-8.5Q40-8.1 43.1-8.1L43.1-8.1Q44.05-8.1 45.15-8.2L45.15-8.2 45.15-7.1 46.15-7.2Q46.15-6.15 46.05-5.15L46.05-5.15 46-4.1 46.05-3.6 46.05-3.55ZM44.5-5.05Q44.5-5.45 44.6-6.35L44.6-6.35 44.65-7.6Q44.55-7.55 43.9-7.55L43.9-7.55Q42.95-7.55 39.15-7.75L39.15-7.75Q38.25-7.8 36.27-7.9 34.3-8 33.2-8L33.2-8Q32.4-8 31.7-7.9L31.7-7.9 31.7-7.95 31.75-11.85Q31.75-14.6 31.65-20.4L31.65-20.4Q31.55-26.1 31.55-29L31.55-29Q31.55-31.1 31.65-35L31.65-35Q30.25-35.6 27.35-35.6L27.35-35.6Q26.2-35.6 25.17-35.48 24.15-35.35 23.65-35.15L23.65-35.15Q23.85-25.2 23.85-17.45L23.85-17.45Q23.85-7.9 23.5-0.85L23.5-0.85 23.5 0.05Q24.95 0.05 25.6 0.1L25.6 0.1 32.45 0.15Q36.45 0.15 41.1 0L41.1 0Q41.7-0.05 42.5-0.05L42.5-0.05 43.6 0Q44.25 0 44.45-0.3 44.65-0.6 44.65-1.85L44.65-1.85 44.55-4.55 44.5-5.05ZM70.45-23.5Q70.45-20.3 68.7-17.53 66.95-14.75 64.07-13.13 61.2-11.5 58.05-11.5L58.05-11.5Q57.2-11.5 56.8-11.55L56.8-11.55 56.8-9.45Q56.8-4.65 56.95 0.95L56.95 0.95Q56.45 0.95 55.55 1.1L55.55 1.1Q55.2 1.15 54.02 1.28 52.85 1.4 51.8 1.4L51.8 1.4Q49.55 1.4 47.45 1.15L47.45 1.15Q47.45 0.45 47.25 0.3 47.05 0.15 46.45 0.15L46.45 0.15Q46.25-4.7 46.25-16.95L46.25-16.95 46.25-23Q46.25-31.4 46.1-35.15L46.1-35.15Q49.9-36.2 53.9-36.2L53.9-36.2Q58.05-36.2 61.72-34.83 65.4-33.45 67.8-30.6 70.2-27.75 70.45-23.55L70.45-23.55 70.45-23.5ZM68.95-24.55Q68.65-30.35 64.3-33.02 59.95-35.7 53.85-35.7L53.85-35.7Q50.3-35.7 46.6-34.75L46.6-34.75Q46.8-29.15 46.8-17L46.8-17 46.8-8.2Q46.8-4 46.95-0.3L46.95-0.3Q48.3-0.1 50.8-0.1L50.8-0.1Q54.1-0.1 55.3-0.5L55.3-0.5 55.45-0.6Q55.3-5.45 55.3-9.8L55.3-9.8 55.3-11.75Q55.3-12.7 55.25-13.15L55.25-13.15Q56.15-13 57.05-13L57.05-13Q59.85-13 62.62-14.45 65.4-15.9 67.17-18.4 68.95-20.9 68.95-23.8L68.95-23.8 68.95-24.55ZM61.75-23.75Q61.75-21.55 60.07-20.95 58.4-20.35 55.6-20.3L55.6-20.3 54.5-20.25 54.35-20.25Q53.95-21.5 53.95-24.35L53.95-24.35Q53.95-26.7 53.9-27.75L53.9-27.75Q54.2-28.05 56-28.05L56-28.05Q58.5-28.05 60.2-26.65L60.2-26.65Q60.95-26.2 61.35-25.43 61.75-24.65 61.75-23.75L61.75-23.75ZM57-26.55Q56.05-26.55 55.4-26.35L55.4-26.35Q55.45-25.6 55.45-24.2L55.45-24.2 55.45-22.75 55.45-21.9Q55.45-21.15 55.55-20.8L55.55-20.8 55.8-20.8Q58.2-20.8 59.72-21.38 61.25-21.95 61.25-23.8L61.25-23.8Q61.25-25.25 59.95-25.9 58.65-26.55 57-26.55L57-26.55ZM94.54 1.15Q92.64 1.5 89.59 1.5L89.59 1.5Q87.49 1.5 86.54 1.55L86.54 1.55 86.39 0.5Q85.79 0.5 85.54 0.55L85.54 0.55Q85.19-2.1 85.09-7.1L85.09-7.1Q84.99-10.75 84.84-12.5L84.84-12.5Q83.74-12.6 83.49-12.6L83.49-12.6Q82.04-12.6 80.84-12.35L80.84-12.35Q80.79-11.6 80.79-9.9L80.79-9.9 80.84-6.9Q80.89-5.9 80.89-3.95L80.89-3.95Q80.89-0.8 80.54 0.95L80.54 0.95Q79.64 1.5 78.09 1.5L78.09 1.5Q77.49 1.5 76.29 1.4L76.29 1.4Q75.09 1.3 74.69 1.3L74.69 1.3Q73.79 1.3 72.84 1.8L72.84 1.8 72.74 0.4Q72.29 0.5 71.84 0.8L71.84 0.8Q71.54-2.75 71.29-12.23 71.04-21.7 71.04-29.55L71.04-29.55Q71.04-33.8 71.09-35.4L71.09-35.4 71.84-35.45Q72.54-35.3 73.19-35.3L73.19-35.3Q73.69-35.3 74.89-35.4L74.89-35.4Q76.29-35.5 77.09-35.5L77.09-35.5Q77.69-35.5 78.09-35.27 78.49-35.05 78.64-34.4L78.64-34.4Q78.94-34.35 79.17-34.3 79.39-34.25 79.54-34.2L79.54-34.2Q79.74-32.45 79.84-29.1L79.84-29.1Q80.04-24.35 80.49-21.95L80.49-21.95 81.04-21.95Q82.59-21.95 83.84-22.15L83.84-22.15 84.19-22.15Q84.49-25.75 84.49-29.25L84.49-29.25Q84.49-33.15 84.34-35.15L84.34-35.15Q86.74-35.85 90.09-35.85L90.09-35.85 90.79-35.85Q91.59-35.85 92.19-35.75L92.19-35.75 92.19-34.8Q92.79-34.8 93.19-34.75L93.19-34.75 94.54 1.15ZM91.69-35.3Q91.14-35.35 90.09-35.35L90.09-35.35Q86.84-35.35 84.84-34.75L84.84-34.75Q84.99-31.75 84.99-29.2L84.99-29.2Q84.99-25.55 84.64-21.7L84.64-21.7 84.59-21.7Q82.84-21.45 81.14-21.45L81.14-21.45Q79.94-21.45 79.19-21.65L79.19-21.65 79.14-21.65Q78.69-24 78.49-28.75L78.49-28.75Q78.39-32.25 78.09-34.8L78.09-34.8Q77.44-35 76.29-35L76.29-35 74.94-34.95 73.29-34.85 72.84-34.8Q72.29-34.8 71.74-34.95L71.74-34.95 71.59-34.9Q71.54-33.3 71.54-29.55L71.54-29.55Q71.54-21.6 71.77-12.6 71.99-3.6 72.29-0.05L72.29-0.05Q72.64-0.25 73.39-0.25L73.39-0.25Q73.99-0.25 75.19-0.15L75.19-0.15Q76.24 0 77.19 0L77.19 0Q77.89 0 78.32-0.05 78.74-0.1 79.09-0.35L79.09-0.35Q79.34-2.1 79.34-4.65L79.34-4.65Q79.34-6.6 79.29-7.6L79.29-7.6 79.24-10.5Q79.24-12.1 79.39-13.75L79.39-13.75Q80.74-14.1 82.44-14.1L82.44-14.1Q83.59-14.1 85.19-13.85L85.19-13.85 85.24-13.8Q85.49-11.75 85.59-7.3L85.59-7.3Q85.59-2.7 85.99 0L85.99 0 86.04 0Q86.44-0.05 87.49-0.05L87.49-0.05 89.29-0.05Q91.59-0.05 93.04-0.3L93.04-0.3 91.69-35.3ZM117.99 1.4Q115.99 1.75 114.79 1.75L114.79 1.75Q112.49 1.75 110.29 1.25L110.29 1.25Q110.09 0.65 109.94 0.5 109.79 0.35 109.59 0.33 109.39 0.3 109.29 0.25L109.29 0.25Q108.89-1 108.19-3.8L108.19-3.8Q107.79-5.45 107.52-6.2 107.24-6.95 106.94-6.95L106.94-6.95Q106.54-6.95 106.27-6.93 105.99-6.9 105.54-6.9L105.54-6.9Q105.19-5.95 104.84-3.85L104.84-3.85Q104.44-1.9 104.14-0.75 103.84 0.4 103.29 1.45L103.29 1.45Q103.14 1.45 102.87 1.5 102.59 1.55 102.19 1.55L102.19 1.55Q101.64 1.5 99.89 1.5L99.89 1.5 97.74 1.45 95.09 1.4 95.24 0.4 94.09 0.4 94.79-3.3Q96.19-11.4 97.84-19.28 99.49-27.15 101.99-35.45L101.99-35.45Q102.89-35.55 103.04-35.55L103.04-35.55Q103.24-35.55 104.34-35.5 105.44-35.45 108.94-35.8L108.94-35.8Q109.14-34.95 109.19-34.7L109.19-34.7 109.94-34.8Q110.39-32.25 113.09-21L113.09-21Q114.09-16.9 114.14-16.65L114.14-16.65 117.99 1.4ZM112.64-17.55L108.54-35.25Q106.34-35.05 104.19-35.05L104.19-35.05 103.14-35.05Q102.54-35.05 102.39-35L102.39-35Q99.99-26.95 98.42-19.35 96.84-11.75 95.29-3.15L95.29-3.15Q95.14-2.2 94.99-1.38 94.84-0.55 94.74-0.1L94.74-0.1 94.84-0.05 96.04-0.05 99.99 0Q100.49 0.05 101.19 0.05L101.19 0.05Q101.74 0.05 101.84 0L101.84 0 101.99-0.05Q102.44-0.8 102.69-1.85 102.94-2.9 103.24-4.65L103.24-4.65Q103.74-7.45 104.19-8.4L104.19-8.4Q104.74-8.4 105.09-8.43 105.44-8.45 105.64-8.45L105.64-8.45 106.29-8.45 107.29-8.35Q107.69-7.45 108.12-5.85 108.54-4.25 108.64-3.85L108.64-3.85Q109.14-1.5 109.64-0.2L109.64-0.2 109.69-0.2Q111.64 0.25 113.79 0.25L113.79 0.25Q115.04 0.25 116.39 0L116.39 0 116.39-0.05 112.64-17.55ZM105.04-14.25L103.84-14.3Q104.44-18.75 104.39-18.35L104.39-18.35Q104.79-21.7 105.07-23.23 105.34-24.75 105.64-24.75L105.64-24.75Q105.99-24.75 106.42-22.4 106.84-20.05 107.54-14.3L107.54-14.3 105.04-14.25ZM106.94-14.8L106.29-20.5 105.49-14.8 106.94-14.8Z" fill="#59feff" data-fill-palette-color="primary"></path></g></svg></g></svg></g><g transform="matrix(1,0,0,1,0,142.31586226422687)"><svg viewBox="0 0 315.9472159725995 17.617000454752397" height="17.617000454752397" width="315.9472159725995"><g transform="matrix(1,0,0,1,0,0)"><svg width="315.9472159725995" viewBox="-2 -39.9 941.65 53.45" height="17.617000454752397" data-palette-color="#59feff"><path d="M11 0L2 0 5-31.8 15-31.8 21.55-14.05 21.7-13.45 21.8-14.05 28.7-31.8 38.7-31.8 41.2 0 32.2 0 31.2-19.25 31.05-20.1 30.95-20.1 30.7-19.25 24.7-3 18.7-3 12.65-19.25 12.45-20.1 12.3-20.1 12.15-19.25 11 0ZM58.7 0.45L58.7 0.45Q54.55 0.45 51.53-1.2 48.5-2.85 46.85-5.9 45.2-8.95 45.2-13.1L45.2-13.1Q45.2-19.35 48.83-22.73 52.45-26.1 58.6-26.1L58.6-26.1Q64.75-26.1 68.4-22.7 72.05-19.3 72.05-13L72.05-13Q72.05-8.9 70.45-5.88 68.85-2.85 65.85-1.2 62.85 0.45 58.7 0.45ZM58.7-6.25L58.7-6.25Q61.2-6.25 62.53-8.1 63.85-9.95 63.85-13L63.85-13Q63.85-16.25 62.43-17.88 61-19.5 58.6-19.5L58.6-19.5Q56.2-19.5 54.78-17.88 53.35-16.25 53.35-13.05L53.35-13.05Q53.35-9.95 54.8-8.1 56.25-6.25 58.7-6.25ZM104.4-2.25L97.8 2.55 94.75-1.35Q92.25 0.25 88.5 0.25L88.5 0.25Q84.85 0.25 82.05-1.23 79.25-2.7 77.65-5.53 76.05-8.35 76.05-12.35L76.05-12.35Q76.05-16.25 77.55-19.03 79.05-21.8 81.7-23.28 84.35-24.75 87.8-24.75L87.8-24.75Q89.4-24.75 91.2-24.48 93-24.2 93.85-23.85L93.85-23.85 93.85-32.5 101.8-32.5 101.8-6 104.4-2.25ZM89.65-6.45L89.65-6.45Q91.3-6.45 92.55-7.48 93.8-8.5 93.8-10.9L93.8-10.9 93.8-17.35Q93-17.75 91.83-17.95 90.65-18.15 89.65-18.15L89.65-18.15Q87.35-18.15 85.85-16.78 84.35-15.4 84.35-12.45L84.35-12.45Q84.35-10.3 85.13-8.97 85.9-7.65 87.13-7.05 88.35-6.45 89.65-6.45ZM121.05 0.3L121.05 0.3Q117.05 0.3 113.98-1.3 110.9-2.9 109.15-5.95 107.4-9 107.4-13.3L107.4-13.3Q107.4-19.35 110.78-22.63 114.15-25.9 119.85-25.9L119.85-25.9Q123.85-25.9 126.38-24.38 128.9-22.85 130.1-20.3 131.3-17.75 131.3-14.65L131.3-14.65Q131.3-13.55 131.18-12.38 131.05-11.2 130.8-10.05L130.8-10.05 115.25-10.05Q115.5-7.5 117.38-6.6 119.25-5.7 121.7-5.7L121.7-5.7Q123.75-5.7 125.45-6.18 127.15-6.65 128.2-7.45L128.2-7.45 130.35-2.45Q129.1-1.4 126.63-0.55 124.15 0.3 121.05 0.3ZM115.25-15.1L115.25-15.1 124.3-15.1Q124.3-17.1 123.18-18.48 122.05-19.85 119.8-19.85L119.8-19.85Q117.65-19.85 116.45-18.55 115.25-17.25 115.25-15.1ZM144.3 0L135.8 0 135.8-21.2Q137.55-23.2 140.13-24.55 142.7-25.9 146.05-25.9L146.05-25.9Q150.15-25.9 153.25-23.8L153.25-23.8 151.15-18.05Q150.4-18.55 149.38-18.8 148.35-19.05 147.5-19.05L147.5-19.05Q146.45-19.05 145.58-18.78 144.7-18.5 144.3-18.15L144.3-18.15 144.3 0ZM181.4-1.8L175.2 3.45 171.15-0.6 171.15-14.2Q171.15-16.25 170.05-17.35 168.95-18.45 166.85-18.45L166.85-18.45Q165.95-18.45 165.15-18.25 164.35-18.05 163.75-17.7L163.75-17.7 163.75 0 155.75 0 155.75-21.55Q157.65-23.45 160.93-24.63 164.2-25.8 168.05-25.8L168.05-25.8Q173.6-25.8 176.38-23.28 179.15-20.75 179.15-16.45L179.15-16.45 179.15-4.35 181.4-1.8ZM209.7 0.45L209.7 0.45Q205.9 0.45 202.43-0.68 198.95-1.8 196.9-3.55L196.9-3.55 199.65-9.7Q200.7-8.9 202.25-8.25 203.8-7.6 205.6-7.2 207.4-6.8 209.05-6.8L209.05-6.8Q211.45-6.8 212.35-7.55 213.25-8.3 213.25-9.3L213.25-9.3Q213.25-10.3 212.53-10.9 211.8-11.5 210.2-12.1L210.2-12.1 206-13.65Q202.1-15.1 199.72-17.18 197.35-19.25 197.35-22.9L197.35-22.9Q197.35-27.15 200.68-29.58 204-32 210.15-32L210.15-32Q214.15-32 217.08-31.03 220-30.05 221.85-28.45L221.85-28.45 219.3-22.6Q218.25-23.2 216.7-23.7 215.15-24.2 213.47-24.48 211.8-24.75 210.3-24.75L210.3-24.75Q208.25-24.75 207.33-24.2 206.4-23.65 206.4-22.75L206.4-22.75Q206.4-22 207.1-21.38 207.8-20.75 209.45-20.15L209.45-20.15 213.1-18.8Q218.15-16.95 220.23-14.88 222.3-12.8 222.3-9.55L222.3-9.55Q222.3-5.2 219.08-2.38 215.85 0.45 209.7 0.45ZM239.9 0.35L239.9 0.35Q237 0.35 234.75-0.6 232.5-1.55 231.23-3.65 229.95-5.75 229.95-9.2L229.95-9.2 229.95-18.8 225.8-18.8 225.8-24.75 230.15-24.75 230.15-31.8 238.15-31.8 238.15-24.75 244.95-24.75 244.95-18.75 238.2-18.75 238.2-9.45Q238.2-7.55 239.13-6.85 240.05-6.15 241.35-6.15L241.35-6.15Q242.15-6.15 243.13-6.33 244.1-6.5 244.65-6.85L244.65-6.85 246-0.95Q244.75-0.25 243.13 0.05 241.5 0.35 239.9 0.35ZM274.05-2.55L267.85 2.6 264.7-1.2Q262.35 0.25 258.85 0.25L258.85 0.25Q254.2 0.25 251.6-2.18 249-4.6 249-8.55L249-8.55Q249-12.15 251.2-14.13 253.4-16.1 257.6-16.1L257.6-16.1 263.75-16.1 263.75-16.9Q263.75-18.35 262.45-19.07 261.15-19.8 258.75-19.8L258.75-19.8Q256.9-19.8 255.32-19.38 253.75-18.95 252.3-18.1L252.3-18.1 250.35-23.9Q252.25-24.95 254.6-25.43 256.95-25.9 259.3-25.9L259.3-25.9Q265.1-25.9 268.4-23.43 271.7-20.95 271.7-16.8L271.7-16.8 271.7-5.4 274.05-2.55ZM260.1-5.95L260.1-5.95Q262-5.95 262.9-7.18 263.8-8.4 263.8-9.65L263.8-9.65 263.8-11.05 260.1-11.05Q258.55-11.05 257.77-10.4 257-9.75 257-8.6L257-8.6Q257-7.35 257.88-6.65 258.75-5.95 260.1-5.95ZM290.55 0.2L290.55 0.2Q286.6 0.2 283.55-1.4 280.5-3 278.78-6.05 277.05-9.1 277.05-13.45L277.05-13.45Q277.05-19.35 280.35-22.8 283.65-26.25 289.9-26.25L289.9-26.25Q292.25-26.25 294.53-25.73 296.8-25.2 298.65-24.1L298.65-24.1 296.7-18.45Q294.7-19.65 291.9-19.65L291.9-19.65Q288.7-19.65 287.03-18.05 285.35-16.45 285.35-13.45L285.35-13.45Q285.35-10.1 287.3-8.25 289.25-6.4 292.45-6.4L292.45-6.4Q293.9-6.4 295.32-6.8 296.75-7.2 297.75-7.95L297.75-7.95 299.95-3Q298.45-1.8 296.2-0.8 293.95 0.2 290.55 0.2ZM327.3-4.25L321.95 0.8 312.45-9.7 312.45 0 304.45 0 304.45-32.5 312.45-32.5 312.45-16.35 321.15-26.75 326.6-22.1 318.65-13 327.3-4.25ZM358.15 0L348.2 0 342.8-25.6 350.8-25.6 353.85-8.55 358.6-25.1 366.6-25.1 371.35-8.55 374.4-25.6 382.4-25.6 377 0 367.05 0 362.7-15.4 362.6-15.9 362.5-15.4 358.15 0ZM394.4 0L386.4 0 386.4-24.1 394.4-24.1 394.4 0ZM390.4-27.2L390.4-27.2Q388.4-27.2 387.15-28.45 385.9-29.7 385.9-31.55L385.9-31.55Q385.9-33.4 387.15-34.65 388.4-35.9 390.4-35.9L390.4-35.9Q392.45-35.9 393.68-34.65 394.9-33.4 394.9-31.55L394.9-31.55Q394.9-29.7 393.68-28.45 392.45-27.2 390.4-27.2ZM412.5 0.35L412.5 0.35Q409.6 0.35 407.35-0.6 405.1-1.55 403.83-3.65 402.55-5.75 402.55-9.2L402.55-9.2 402.55-18.8 398.4-18.8 398.4-24.75 402.75-24.75 402.75-31.8 410.75-31.8 410.75-24.75 417.55-24.75 417.55-18.75 410.8-18.75 410.8-9.45Q410.8-7.55 411.73-6.85 412.65-6.15 413.95-6.15L413.95-6.15Q414.75-6.15 415.73-6.33 416.7-6.5 417.25-6.85L417.25-6.85 418.6-0.95Q417.35-0.25 415.73 0.05 414.1 0.35 412.5 0.35ZM447.5-2.8L441.45 2.45 437.5-1.6 437.5-14.2Q437.5-16.25 436.4-17.35 435.3-18.45 433.2-18.45L433.2-18.45Q432.3-18.45 431.5-18.25 430.7-18.05 430.1-17.7L430.1-17.7 430.1 0 422.1 0 422.1-32.5 430.05-32.5 430.05-24.15Q430.95-24.55 432.65-24.8 434.35-25.05 435.75-25.05L435.75-25.05Q440.05-25.05 442.75-22.38 445.45-19.7 445.45-14.95L445.45-14.95 445.45-5.1 447.5-2.8ZM472 0L463.5 0 463.5-31.8 485.85-31.8 485.85-25.35 472-25.35 472-17.5 484.35-17.5 484.35-11.05 472-11.05 472 0ZM516.85-3.05L510.1 2.3 507-1.6Q505.85-0.85 504.3-0.43 502.75 0 500.55 0L500.55 0Q494.95 0 492.15-2.78 489.35-5.55 489.35-10.8L489.35-10.8 489.35-25.6 497.35-25.6 497.35-11.25Q497.35-9 498.55-7.83 499.75-6.65 501.75-6.65L501.75-6.65Q503.8-6.65 504.95-7.83 506.1-9 506.1-11.25L506.1-11.25 506.1-25.6 514.1-25.6 514.1-6.25 516.85-3.05ZM533.45 0.35L533.45 0.35Q530.55 0.35 528.3-0.6 526.05-1.55 524.77-3.65 523.5-5.75 523.5-9.2L523.5-9.2 523.5-18.8 519.35-18.8 519.35-24.75 523.7-24.75 523.7-31.8 531.7-31.8 531.7-24.75 538.5-24.75 538.5-18.75 531.75-18.75 531.75-9.45Q531.75-7.55 532.68-6.85 533.6-6.15 534.9-6.15L534.9-6.15Q535.7-6.15 536.68-6.33 537.65-6.5 538.2-6.85L538.2-6.85 539.55-0.95Q538.3-0.25 536.68 0.05 535.05 0.35 533.45 0.35ZM570.55-3.05L563.8 2.3 560.7-1.6Q559.55-0.85 558-0.43 556.45 0 554.25 0L554.25 0Q548.65 0 545.85-2.78 543.05-5.55 543.05-10.8L543.05-10.8 543.05-25.6 551.05-25.6 551.05-11.25Q551.05-9 552.25-7.83 553.45-6.65 555.45-6.65L555.45-6.65Q557.5-6.65 558.65-7.83 559.8-9 559.8-11.25L559.8-11.25 559.8-25.6 567.8-25.6 567.8-6.25 570.55-3.05ZM582.05 0L573.55 0 573.55-21.2Q575.3-23.2 577.88-24.55 580.45-25.9 583.8-25.9L583.8-25.9Q587.9-25.9 591-23.8L591-23.8 588.9-18.05Q588.15-18.55 587.13-18.8 586.1-19.05 585.25-19.05L585.25-19.05Q584.2-19.05 583.33-18.78 582.45-18.5 582.05-18.15L582.05-18.15 582.05 0ZM605.65 0.3L605.65 0.3Q601.65 0.3 598.58-1.3 595.5-2.9 593.75-5.95 592-9 592-13.3L592-13.3Q592-19.35 595.38-22.63 598.75-25.9 604.45-25.9L604.45-25.9Q608.45-25.9 610.98-24.38 613.5-22.85 614.7-20.3 615.9-17.75 615.9-14.65L615.9-14.65Q615.9-13.55 615.78-12.38 615.65-11.2 615.4-10.05L615.4-10.05 599.85-10.05Q600.1-7.5 601.98-6.6 603.85-5.7 606.3-5.7L606.3-5.7Q608.35-5.7 610.05-6.18 611.75-6.65 612.8-7.45L612.8-7.45 614.95-2.45Q613.7-1.4 611.23-0.55 608.75 0.3 605.65 0.3ZM599.85-15.1L599.85-15.1 608.9-15.1Q608.9-17.1 607.78-18.48 606.65-19.85 604.4-19.85L604.4-19.85Q602.25-19.85 601.05-18.55 599.85-17.25 599.85-15.1ZM648.65 0L640.15 0 640.15-25.15 631.9-25.15 631.9-31.8 656.9-31.8 656.9-25.15 648.65-25.15 648.65 0ZM670.55 0.3L670.55 0.3Q666.55 0.3 663.48-1.3 660.4-2.9 658.65-5.95 656.9-9 656.9-13.3L656.9-13.3Q656.9-19.35 660.28-22.63 663.65-25.9 669.35-25.9L669.35-25.9Q673.35-25.9 675.88-24.38 678.4-22.85 679.6-20.3 680.8-17.75 680.8-14.65L680.8-14.65Q680.8-13.55 680.68-12.38 680.55-11.2 680.3-10.05L680.3-10.05 664.75-10.05Q665-7.5 666.88-6.6 668.75-5.7 671.2-5.7L671.2-5.7Q673.25-5.7 674.95-6.18 676.65-6.65 677.7-7.45L677.7-7.45 679.85-2.45Q678.6-1.4 676.13-0.55 673.65 0.3 670.55 0.3ZM664.75-15.1L664.75-15.1 673.8-15.1Q673.8-17.1 672.68-18.48 671.55-19.85 669.3-19.85L669.3-19.85Q667.15-19.85 665.95-18.55 664.75-17.25 664.75-15.1ZM698.3 0.2L698.3 0.2Q694.35 0.2 691.3-1.4 688.25-3 686.53-6.05 684.8-9.1 684.8-13.45L684.8-13.45Q684.8-19.35 688.1-22.8 691.4-26.25 697.65-26.25L697.65-26.25Q700-26.25 702.28-25.73 704.55-25.2 706.4-24.1L706.4-24.1 704.45-18.45Q702.45-19.65 699.65-19.65L699.65-19.65Q696.45-19.65 694.78-18.05 693.1-16.45 693.1-13.45L693.1-13.45Q693.1-10.1 695.05-8.25 697-6.4 700.2-6.4L700.2-6.4Q701.65-6.4 703.08-6.8 704.5-7.2 705.5-7.95L705.5-7.95 707.7-3Q706.2-1.8 703.95-0.8 701.7 0.2 698.3 0.2ZM737.6-2.8L731.55 2.45 727.6-1.6 727.6-14.2Q727.6-16.25 726.5-17.35 725.4-18.45 723.3-18.45L723.3-18.45Q722.4-18.45 721.6-18.25 720.8-18.05 720.2-17.7L720.2-17.7 720.2 0 712.2 0 712.2-32.5 720.15-32.5 720.15-24.15Q721.05-24.55 722.75-24.8 724.45-25.05 725.85-25.05L725.85-25.05Q730.15-25.05 732.85-22.38 735.55-19.7 735.55-14.95L735.55-14.95 735.55-5.1 737.6-2.8ZM766.75-1.8L760.55 3.45 756.5-0.6 756.5-14.2Q756.5-16.25 755.4-17.35 754.3-18.45 752.2-18.45L752.2-18.45Q751.3-18.45 750.5-18.25 749.7-18.05 749.1-17.7L749.1-17.7 749.1 0 741.1 0 741.1-21.55Q743-23.45 746.27-24.63 749.55-25.8 753.4-25.8L753.4-25.8Q758.95-25.8 761.73-23.28 764.5-20.75 764.5-16.45L764.5-16.45 764.5-4.35 766.75-1.8ZM782.25 0.45L782.25 0.45Q778.1 0.45 775.08-1.2 772.05-2.85 770.4-5.9 768.75-8.95 768.75-13.1L768.75-13.1Q768.75-19.35 772.38-22.73 776-26.1 782.15-26.1L782.15-26.1Q788.3-26.1 791.95-22.7 795.6-19.3 795.6-13L795.6-13Q795.6-8.9 794-5.88 792.4-2.85 789.4-1.2 786.4 0.45 782.25 0.45ZM782.25-6.25L782.25-6.25Q784.75-6.25 786.08-8.1 787.4-9.95 787.4-13L787.4-13Q787.4-16.25 785.98-17.88 784.55-19.5 782.15-19.5L782.15-19.5Q779.75-19.5 778.33-17.88 776.9-16.25 776.9-13.05L776.9-13.05Q776.9-9.95 778.35-8.1 779.8-6.25 782.25-6.25ZM808.1 0L800.1 0 800.1-32.5 808.1-32.5 808.1 0ZM826.1 0.45L826.1 0.45Q821.95 0.45 818.93-1.2 815.9-2.85 814.25-5.9 812.6-8.95 812.6-13.1L812.6-13.1Q812.6-19.35 816.23-22.73 819.85-26.1 826-26.1L826-26.1Q832.15-26.1 835.8-22.7 839.45-19.3 839.45-13L839.45-13Q839.45-8.9 837.85-5.88 836.25-2.85 833.25-1.2 830.25 0.45 826.1 0.45ZM826.1-6.25L826.1-6.25Q828.6-6.25 829.93-8.1 831.25-9.95 831.25-13L831.25-13Q831.25-16.25 829.83-17.88 828.4-19.5 826-19.5L826-19.5Q823.6-19.5 822.18-17.88 820.75-16.25 820.75-13.05L820.75-13.05Q820.75-9.95 822.2-8.1 823.65-6.25 826.1-6.25ZM855 9.55L855 9.55Q851.05 9.55 848.15 8.38 845.25 7.2 843.45 5.7L843.45 5.7 846.05-0.15Q848.05 1.25 850.25 2.05 852.45 2.85 854.8 2.85L854.8 2.85Q857.6 2.85 858.98 1.78 860.35 0.7 860.35-0.95L860.35-0.95 860.35-3.05Q859.35-2.6 858.08-2.38 856.8-2.15 855.45-2.15L855.45-2.15Q852.45-2.15 849.7-3.35 846.95-4.55 845.2-7.15 843.45-9.75 843.45-14L843.45-14Q843.45-19.85 846.88-22.88 850.3-25.9 855.95-25.9L855.95-25.9Q858.15-25.9 860.63-25.45 863.1-25 865.2-24.18 867.3-23.35 868.45-22.2L868.45-22.2 868.45-1.05Q868.45 2.45 866.63 4.83 864.8 7.2 861.75 8.38 858.7 9.55 855 9.55ZM856.7-8.75L856.7-8.75Q858.3-8.75 859.38-9.78 860.45-10.8 860.45-13.2L860.45-13.2 860.45-18.65Q859.85-18.9 858.8-19.1 857.75-19.3 856.8-19.3L856.8-19.3Q854.4-19.3 853.08-17.9 851.75-16.5 851.75-14.05L851.75-14.05Q851.75-12.15 852.5-10.98 853.25-9.8 854.38-9.28 855.5-8.75 856.7-8.75ZM881.45 0L873.45 0 873.45-24.1 881.45-24.1 881.45 0ZM877.45-27.2L877.45-27.2Q875.45-27.2 874.2-28.45 872.95-29.7 872.95-31.55L872.95-31.55Q872.95-33.4 874.2-34.65 875.45-35.9 877.45-35.9L877.45-35.9Q879.5-35.9 880.73-34.65 881.95-33.4 881.95-31.55L881.95-31.55Q881.95-29.7 880.73-28.45 879.5-27.2 877.45-27.2ZM899.6 0.3L899.6 0.3Q895.6 0.3 892.53-1.3 889.45-2.9 887.7-5.95 885.95-9 885.95-13.3L885.95-13.3Q885.95-19.35 889.33-22.63 892.7-25.9 898.4-25.9L898.4-25.9Q902.4-25.9 904.93-24.38 907.45-22.85 908.65-20.3 909.85-17.75 909.85-14.65L909.85-14.65Q909.85-13.55 909.73-12.38 909.6-11.2 909.35-10.05L909.35-10.05 893.8-10.05Q894.05-7.5 895.93-6.6 897.8-5.7 900.25-5.7L900.25-5.7Q902.3-5.7 904-6.18 905.7-6.65 906.75-7.45L906.75-7.45 908.9-2.45Q907.65-1.4 905.18-0.55 902.7 0.3 899.6 0.3ZM893.8-15.1L893.8-15.1 902.85-15.1Q902.85-17.1 901.73-18.48 900.6-19.85 898.35-19.85L898.35-19.85Q896.2-19.85 895-18.55 893.8-17.25 893.8-15.1ZM925.15 1L925.15 1Q921.35 1 918.18-0.2 915-1.4 913.35-2.8L913.35-2.8 915.9-8.15Q917.15-7.2 919.45-6.35 921.75-5.5 924.15-5.5L924.15-5.5Q925.95-5.5 926.8-6.05 927.65-6.6 927.65-7.55L927.65-7.55Q927.65-8.4 927-8.8 926.35-9.2 925.05-9.4L925.05-9.4 922.65-9.8Q918.4-10.5 916.1-12.48 913.8-14.45 913.8-17.8L913.8-17.8Q913.8-19.95 914.88-21.75 915.95-23.55 918.23-24.65 920.5-25.75 924.15-25.75L924.15-25.75Q927.75-25.75 930.58-24.83 933.4-23.9 934.8-22.9L934.8-22.9 932.75-17.55Q931.95-18.1 930.63-18.53 929.3-18.95 927.8-19.2 926.3-19.45 924.95-19.45L924.95-19.45Q921.8-19.45 921.8-17.9L921.8-17.9Q921.8-17.15 922.4-16.68 923-16.2 923.75-16.1L923.75-16.1 926.8-15.6Q931.85-14.8 933.75-12.85 935.65-10.9 935.65-7.9L935.65-7.9Q935.65-5.55 934.6-3.53 933.55-1.5 931.25-0.25 928.95 1 925.15 1Z" opacity="1" transform="matrix(1,0,0,1,0,0)" fill="#59feff" class="slogan-text-1" data-fill-palette-color="secondary" id="text-1"></path></svg></g></svg></g></svg></g></svg></g><g transform="matrix(1,0,0,1,0,0.3998321567974443)"><svg viewBox="0 0 178.3276311501821 159.93286271897927" height="159.93286271897927" width="178.3276311501821"><g><svg xmlns="http://www.w3.org/2000/svg" data-name="Layer 1" viewBox="1.5270166537925824 6.527016653792581 96.94610610181371 86.94596669241483" x="0" y="0" height="159.93286271897927" width="178.3276311501821" class="icon-icon-0" data-fill-palette-color="accent" id="icon-0"><g data-name="Group" fill="#10b981" data-fill-palette-color="accent"><path data-name="Compound Path" d="M94.5 49a4 4 0 1 0-3.9-5H67.2a16.5 16.5 0 0 0-2.4-6H82.6a4 4 0 1 0 0-2H63.3l-0.3-0.4V15.5H77.1a4 4 0 1 0 0-1.9H62a1 1 0 0 0-1 1V33.9a16.6 16.6 0 0 0-7.1-3.1 1 1 0 0 0 0.1-0.3V22.4a4 4 0 1 0-2 0v8.1H50.9a16.8 16.8 0 0 0-4.9 0.7V14.4a4 4 0 1 0-2 0V31.5a1 1 0 0 0 0.1 0.5A16.5 16.5 0 0 0 38 36.7V22.4a4 4 0 1 0-2 0V37.5H12.5v-14h0a4 4 0 1 0-1.9 0h0v15a1 1 0 0 0 1 1H36.1l-0.4 0.9a13.5 13.5 0 0 0-10.9 6.2H17.4a4 4 0 1 0 0 2h6.4a13.4 13.4 0 0 0-1.1 5.4c0 0.2 0 0.4 0 0.6H9.4a4 4 0 1 0 0 2H22.8a13.5 13.5 0 0 0 2.8 6H17.4a4 4 0 1 0 0 2H27.7a13.5 13.5 0 0 0 8.4 3h0v15H21.9a4 4 0 1 0 0 1.9H37a1 1 0 0 0 1-1v-16h7V77.6a4 4 0 1 0 2 0V67.5h6V85.6a4 4 0 1 0 2 0V67.5h6V77.6a4 4 0 1 0 2 0V67.5h3.6A10.8 10.8 0 0 0 75.3 63H89.5V77h0a4 4 0 1 0 1.9 0h0V62a1 1 0 0 0-1-1h-14a10.7 10.7 0 0 0 0.6-7h5.6a4 4 0 1 0 0-2H76.4a10.9 10.9 0 0 0-7.6-6H90.6A4 4 0 0 0 94.5 49Zm-8-14a2 2 0 1 1-2 2A2 2 0 0 1 86.5 35ZM81 12.5a2 2 0 1 1-2 2A2 2 0 0 1 81 12.5Zm-30 6a2 2 0 1 1 2 2A2 2 0 0 1 51 18.5Zm-8-8a2 2 0 1 1 2 2A2 2 0 0 1 43 10.5Zm-33.5 9a2 2 0 1 1 2 2A2 2 0 0 1 9.5 19.5Zm4 30a2 2 0 1 1 2-2A2 2 0 0 1 13.5 49.5Zm-8 8a2 2 0 1 1 2-2A2 2 0 0 1 5.5 57.5ZM18 85.5a2 2 0 1 1 2-2A2 2 0 0 1 18 85.5Zm30-4a2 2 0 1 1-2-2A2 2 0 0 1 48 81.5Zm8 8a2 2 0 1 1-2-2A2 2 0 0 1 56 89.5Zm8-8a2 2 0 1 1-2-2A2 2 0 0 1 64 81.5ZM92.5 81a2 2 0 1 1-2-2A2 2 0 0 1 92.5 81Zm-6-30a2 2 0 1 1-2 2A2 2 0 0 1 86.5 51Zm8-8a2 2 0 1 1-2 2A2 2 0 0 1 94.5 43ZM35 18.5a2 2 0 1 1 2 2A2 2 0 0 1 35 18.5Zm-21.5 47a2 2 0 1 1 2-2A2 2 0 0 1 13.5 65.5Zm61.9-8.9a8.9 8.9 0 0 1-8.8 8.8H36.1a11.5 11.5 0 1 1 0-23.1h0.1a1 1 0 0 0 1.1-0.6 14.7 14.7 0 0 1 28.3 5 1 1 0 0 0 1 1A8.9 8.9 0 0 1 75.4 56.6Z" fill="#10b981" data-fill-palette-color="accent"></path></g></svg></g></svg></g></svg></g><defs></defs></svg><rect width="395.52" height="100.87824323361318" fill="none" stroke="none" visibility="hidden"></rect></g></svg></g></svg>