<svg xmlns="http://www.w3.org/2000/svg" version="1.1" xmlns:xlink="http://www.w3.org/1999/xlink" xmlns:svgjs="http://svgjs.dev/svgjs" width="128" height="128" viewBox="0 0 128 128"><g transform="matrix(0.8046875,0,0,0.8046875,12.333870967741937,23.00799894257176)"><svg viewBox="0 0 155 124" data-background-color="#000000" preserveAspectRatio="xMidYMid meet" height="102" width="128" xmlns="http://www.w3.org/2000/svg" xmlns:xlink="http://www.w3.org/1999/xlink"><g id="tight-bounds" transform="matrix(1,0,0,1,0.25,-0.07109834537397575)"><svg viewBox="0 0 154.5 124.14219669074795" height="124.14219669074795" width="154.5"><g><svg viewBox="0 0 154.5 124.14219669074795" height="124.14219669074795" width="154.5"><g><svg viewBox="0 0 154.5 124.14219669074795" height="124.14219669074795" width="154.5"><g id="textblocktransform"><svg viewBox="0 0 154.5 124.14219669074795" height="124.14219669074795" width="154.5" id="textblock"><g><svg viewBox="0 0 154.5 124.14219669074795" height="124.14219669074795" width="154.5"><g transform="matrix(1,0,0,1,0,0)"><svg width="154.5" viewBox="-4.45 -39.8 56.44427769893046 45.55" height="124.14219669074795" data-palette-color="#10b981"><g transform="matrix(1,0,0,1,0,0)"><g><svg width="14.377707698930461" viewBox="-0.8399999999999999 -40.36 108.01 44.36" height="5.825852770195966" data-palette-color="#10b981" id="scriptelement" x="30.638853849465228" y="-13.079496385097983"><path d="M16.05 0L16.05 0 3.16 0 3.16-36.36 16.16-36.36Q21.64-36.36 25.6-34.19 29.56-32.01 31.7-27.95 33.84-23.88 33.84-18.22L33.84-18.22Q33.84-12.54 31.7-8.45 29.56-4.37 25.58-2.18 21.59 0 16.05 0ZM10.85-29.78L10.85-6.59 15.73-6.59Q19.14-6.59 21.48-7.8 23.81-9.02 24.99-11.59 26.17-14.15 26.17-18.22L26.17-18.22Q26.17-22.25 24.99-24.8 23.81-27.36 21.48-28.57 19.16-29.78 15.75-29.78L15.75-29.78 10.85-29.78ZM64.1 0L39.52 0 39.52-36.36 64.02-36.36 64.02-30.02 47.21-30.02 47.21-21.36 62.76-21.36 62.76-15.02 47.21-15.02 47.21-6.34 64.1-6.34 64.1 0ZM68.18-36.36L76.72-36.36 85.51-8.74 85.84-8.74 94.65-36.36 103.17-36.36 90.64 0 80.73 0 68.18-36.36Z" opacity="1" transform="matrix(1,0,0,1,0,0)" fill="#ffffff" class="undefined-123" data-fill-palette-color="primary" id="yy-123"></path></svg></g></g><path d="M27.661-10.167C27.661-15.781 32.213-20.333 37.828-20.333 43.443-20.333 47.994-15.781 47.994-10.167 47.994-4.552 43.443 0 37.828 0 32.213 0 27.661-4.552 27.661-10.167ZM37.828-0.4C43.222-0.4 47.594-4.773 47.594-10.167 47.594-15.56 43.222-19.933 37.828-19.933 32.434-19.933 28.061-15.56 28.061-10.167 28.061-4.773 32.434-0.4 37.828-0.4Z" fill="#ffffff" id="scriptcircle" data-fill-palette-color="primary"></path><path d="M23.45 1.4Q21.45 1.75 20.25 1.75L20.25 1.75Q17.95 1.75 15.75 1.25L15.75 1.25Q15.55 0.65 15.4 0.5 15.25 0.35 15.05 0.33 14.85 0.3 14.75 0.25L14.75 0.25Q14.35-1 13.65-3.8L13.65-3.8Q13.25-5.45 12.98-6.2 12.7-6.95 12.4-6.95L12.4-6.95Q12-6.95 11.73-6.93 11.45-6.9 11-6.9L11-6.9Q10.65-5.95 10.3-3.85L10.3-3.85Q9.9-1.9 9.6-0.75 9.3 0.4 8.75 1.45L8.75 1.45Q8.6 1.45 8.33 1.5 8.05 1.55 7.65 1.55L7.65 1.55Q7.1 1.5 5.35 1.5L5.35 1.5 3.2 1.45 0.55 1.4 0.7 0.4-0.45 0.4 0.25-3.3Q1.65-11.4 3.3-19.28 4.95-27.15 7.45-35.45L7.45-35.45Q8.35-35.55 8.5-35.55L8.5-35.55Q8.7-35.55 9.8-35.5 10.9-35.45 14.4-35.8L14.4-35.8Q14.6-34.95 14.65-34.7L14.65-34.7 15.4-34.8Q15.85-32.25 18.55-21L18.55-21Q19.55-16.9 19.6-16.65L19.6-16.65 23.45 1.4ZM18.1-17.55L14-35.25Q11.8-35.05 9.65-35.05L9.65-35.05 8.6-35.05Q8-35.05 7.85-35L7.85-35Q5.45-26.95 3.88-19.35 2.3-11.75 0.75-3.15L0.75-3.15Q0.6-2.2 0.45-1.38 0.3-0.55 0.2-0.1L0.2-0.1 0.3-0.05 1.5-0.05 5.45 0Q5.95 0.05 6.65 0.05L6.65 0.05Q7.2 0.05 7.3 0L7.3 0 7.45-0.05Q7.9-0.8 8.15-1.85 8.4-2.9 8.7-4.65L8.7-4.65Q9.2-7.45 9.65-8.4L9.65-8.4Q10.2-8.4 10.55-8.43 10.9-8.45 11.1-8.45L11.1-8.45 11.75-8.45 12.75-8.35Q13.15-7.45 13.58-5.85 14-4.25 14.1-3.85L14.1-3.85Q14.6-1.5 15.1-0.2L15.1-0.2 15.15-0.2Q17.1 0.25 19.25 0.25L19.25 0.25Q20.5 0.25 21.85 0L21.85 0 21.85-0.05 18.1-17.55ZM10.5-14.25L9.3-14.3Q9.9-18.75 9.85-18.35L9.85-18.35Q10.25-21.7 10.53-23.23 10.8-24.75 11.1-24.75L11.1-24.75Q11.45-24.75 11.88-22.4 12.3-20.05 13-14.3L13-14.3 10.5-14.25ZM12.4-14.8L11.75-20.5 10.95-14.8 12.4-14.8Z" opacity="1" transform="matrix(1,0,0,1,0,0)" fill="#ffffff" class="wordmark-text-0" data-fill-palette-color="primary" id="text-0"></path></svg></g></svg></g></svg></g></svg></g></svg></g><defs></defs></svg><rect width="154.5" height="124.14219669074795" fill="none" stroke="none" visibility="hidden"></rect></g></svg></g></svg>